<svg id="レイヤー_1" data-name="レイヤー 1" xmlns="http://www.w3.org/2000/svg" viewBox="0 0 784.08 102.56"><defs><style>.cls-1{fill:#231815;}.cls-2,.cls-3,.cls-4,.cls-5{fill:none;}.cls-3{stroke:#e60012;}.cls-3,.cls-4,.cls-5{stroke-miterlimit:10;}.cls-4{stroke:#c30d23;}.cls-5{stroke:#ea5514;}</style></defs><title>logo</title><rect class="cls-1" y="0.26" width="28.35" height="102.05"/><rect class="cls-1" x="61.38" y="212.6" width="25.51" height="93.54" transform="translate(306.14 -61.12) rotate(90)"/><rect class="cls-1" x="95.4" y="246.61" width="25.51" height="62.36" transform="translate(188.94 309.23) rotate(180)"/><rect class="cls-1" x="71.84" y="272.63" width="25.51" height="68.14" transform="translate(-211.55 230.57) rotate(-106.93)"/><rect class="cls-1" x="103.28" y="0.26" width="28.35" height="102.05"/><rect class="cls-1" x="168.48" y="0.26" width="28.35" height="102.05"/><rect class="cls-1" x="149.41" y="283.75" width="56.6" height="28.35" transform="translate(-122.47 -162.7) rotate(-21.04)"/><polygon class="cls-1" points="232.07 102.34 203.72 102.34 237.79 0.15 266.09 0.29 232.07 102.34"/><polygon class="cls-1" points="277.42 0.22 249.07 0.22 283.14 102.41 311.44 102.27 277.42 0.22"/><polyline class="cls-1" points="518 28.35 548 28.35 554.85 0 452.8 0 452.8 28.35 489.65 28.35"/><rect class="cls-1" x="486.82" y="28.35" width="28.35" height="74.22"/><path class="cls-1" d="M589.12,246.61V348.66h93.54V246.61Zm65.19,73.7H617.46V275h36.85Z" transform="translate(-27.37 -246.36)"/><rect class="cls-1" x="665.03" y="0.26" width="28.35" height="102.05"/><line class="cls-2" x1="693.37" y1="39.6" x2="693.37" y2="62.96"/><path class="cls-3" d="M720.74,297.64" transform="translate(-27.37 -246.36)"/><rect class="cls-1" x="755.74" y="0.26" width="28.35" height="102.05"/><path class="cls-4" d="M804.88,297.64" transform="translate(-27.37 -246.36)"/><polygon class="cls-1" points="693.37 0.26 670.51 17.01 724.53 90.73 724.55 90.71 724.55 42.81 693.37 0.26"/><polygon class="cls-1" points="755.74 0.26 778.6 17.01 724.58 90.73 724.55 90.71 724.55 42.81 755.74 0.26"/><path class="cls-4" d="M639.28,297.64" transform="translate(-27.37 -246.36)"/><path class="cls-4" d="M639.28,297.64" transform="translate(-27.37 -246.36)"/><line class="cls-5" x1="359.88" y1="37.83" x2="359.88" y2="37.83"/><line class="cls-5" x1="401.49" y1="37.83" x2="401.49" y2="37.83"/><line class="cls-2" x1="357.88" y1="39.83" x2="359.88" y2="37.83"/><line class="cls-2" x1="378.72" y1="59.22" x2="380.92" y2="57.45"/><rect class="cls-1" x="318.32" y="0.26" width="28.35" height="102.05"/><rect class="cls-1" x="393.88" y="237.98" width="28.35" height="119.32" transform="translate(-115.19 147.19) rotate(-47.05)"/><rect class="cls-1" x="414.7" y="0.26" width="28.35" height="102.05"/><polygon class="cls-1" points="353.88 57.28 374.62 76.61 346.67 102.31 325.9 83.01 353.88 57.28"/><polygon class="cls-1" points="407.5 45.28 386.75 25.96 414.7 0.26 435.47 19.55 407.5 45.28"/><line class="cls-2" x1="363.54" y1="53.16" x2="367.77" y2="49.41"/></svg>